# xmcd
#
# Track frame offsets:
#	150
#	14973
#	28885
#	40313
#	51645
#	64967
#	78804
#	94142
#	107671
#	123167
#	138882
#	151602
#	165372
#	179787
#	192161
#	206673
#	219032
#	232843
#	247053
#	261511
#	275377
#	288828
#	300820
#	314100
#	327211
#
# Disc length: 4536 seconds
#
# Revision: 1
# Processed by: cddbd v1.5.2PL0 Copyright (c) Steve Scherf et al.
# Submitted via: audiograbber 1.83.01
#
DISCID=6611b619
DTITLE=Various Artist - A Short Cut To The Grave (Prison)
DYEAR=2014
DGENRE=Blues
TTITLE0=Peg Leg Howell - New Prison Blues
TTITLE1=Julius Daniels - Ninety Nine Year Blues
TTITLE2=Sam Collins - The Jail House Blues
TTITLE3=Buddy Boy Hawkins - Jailhouse Fire Blues
TTITLE4=George 'Bullet' Williams - The Escaped Convict
TTITLE5=Sylvester Weaver - Penitentiary Bound Blues
TTITLE6=Blind Lemon Jefferson - Hangman's Blues
TTITLE7=Furry Lewis - Judge Harsh Blues
TTITLE8=Bessie Tucker - Penitentiary
TTITLE9=Tampa Red - Prison Bound Blues
TTITLE10=Ed Bell - My Crime Blues
TTITLE11=Robert Wilkins - Police Sargeant Blues
TTITLE12=Lucille Bogan - Whiskey Selling Woman
TTITLE13=Gene Campbell - Robbin' And Stealin' Blues
TTITLE14=Memphis Jug Band - He's In The Jailhouse Now
TTITLE15=Lillie Mae - Buggy Jail House Blues
TTITLE16=Leroy Carr - Big House Blues
TTITLE17=Joe Mccoy - Joliet Bound
TTITLE18=Charley Patton - High Sheriff Blues
TTITLE19=Kokomo Arnold - Chain Gang Blues
TTITLE20=Red Nelson - Jailhouse Blues
TTITLE21=Bukka White - Parchman Farm Blues
TTITLE22=Sleepy John Estes - Jailhouse Blues
TTITLE23=Champion Jack Dupree - Angola Blues
TTITLE24=Big Maceo - County Jail Blues
EXTD=
EXTT0=
EXTT1=
EXTT2=
EXTT3=
EXTT4=
EXTT5=
EXTT6=
EXTT7=
EXTT8=
EXTT9=
EXTT10=
EXTT11=
EXTT12=
EXTT13=
EXTT14=
EXTT15=
EXTT16=
EXTT17=
EXTT18=
EXTT19=
EXTT20=
EXTT21=
EXTT22=
EXTT23=
EXTT24=
PLAYORDER=
